<?xml version="1.0" standalone="no"?>
<!DOCTYPE svg PUBLIC "-//W3C//DTD SVG 20010904//EN"
 "http://www.w3.org/TR/2001/REC-SVG-20010904/DTD/svg10.dtd">
<svg version="1.0" xmlns="http://www.w3.org/2000/svg"
 width="300.000000pt" height="300.000000pt" viewBox="0 0 300.000000 300.000000"
 preserveAspectRatio="xMidYMid meet">

<g transform="translate(0.000000,300.000000) scale(0.100000,-0.100000)"
fill="#000000" stroke="none">
<path d="M1355 2994 c-229 -33 -374 -77 -544 -164 -411 -213 -697 -599 -788
-1065 -24 -125 -24 -405 0 -530 29 -148 74 -279 142 -413 213 -419 599 -707
1070 -799 125 -24 405 -24 530 0 148 29 279 74 413 142 419 213 707 599 799
1070 24 125 24 405 0 530 -44 224 -146 460 -273 628 -224 298 -550 505 -913
578 -92 19 -366 33 -436 23z m1039 -570 c103 -51 210 -133 214 -163 3 -18 -10
-37 -56 -80 -54 -52 -253 -181 -278 -181 -6 0 -17 12 -24 26 -8 14 -27 32 -42
40 -15 8 -31 26 -34 39 -3 14 -20 36 -36 49 l-30 23 37 93 c19 52 50 118 67
148 30 53 32 54 69 49 21 -3 72 -22 113 -43z m-1796 -291 c-11 -27 -40 -78
-64 -114 -84 -127 -83 -217 4 -332 293 -386 1396 -440 1860 -92 140 105 195
252 137 368 -14 27 -13 31 3 44 46 36 53 36 89 1 65 -62 78 -99 77 -223 0 -73
-6 -127 -17 -160 -8 -27 -21 -86 -28 -130 -11 -72 -16 -83 -50 -117 -59 -57
-189 -132 -325 -188 -370 -152 -795 -191 -1198 -109 -262 53 -572 194 -683
310 -28 30 -33 44 -43 124 -6 50 -19 106 -28 125 -25 53 -24 241 2 295 27 55
139 162 216 208 36 20 66 37 67 37 1 0 -7 -21 -19 -47z m74 -1158 c160 -83
368 -146 583 -175 119 -16 401 -13 534 5 263 37 498 120 658 231 35 24 63 40
63 35 0 -17 -101 -150 -157 -208 -147 -149 -332 -244 -560 -290 -124 -24 -420
-24 -558 1 -256 46 -455 144 -597 293 -52 56 -158 205 -158 224 0 5 24 -9 53
-31 28 -22 91 -61 139 -85z"/>
</g>
</svg>
